<svg width="35" height="35" viewBox="0 0 35 35" fill="none" xmlns="http://www.w3.org/2000/svg">
<path d="M30.8984 17.5H28.9844C28.834 17.5 28.7109 17.623 28.7109 17.7734V28.7109H6.28906V6.28906H17.2266C17.377 6.28906 17.5 6.16602 17.5 6.01562V4.10156C17.5 3.95117 17.377 3.82812 17.2266 3.82812H4.92188C4.31689 3.82812 3.82812 4.31689 3.82812 4.92188V30.0781C3.82812 30.6831 4.31689 31.1719 4.92188 31.1719H30.0781C30.6831 31.1719 31.1719 30.6831 31.1719 30.0781V17.7734C31.1719 17.623 31.0488 17.5 30.8984 17.5Z" fill="white"/>
<path d="M12.1646 18.2827L12.0996 22.3467C12.0962 22.6509 12.3423 22.9004 12.6465 22.9004H12.6602L16.6934 22.8013C16.7618 22.7979 16.8301 22.7705 16.878 22.7227L31.0933 8.53809C31.1993 8.43213 31.1993 8.25781 31.0933 8.15186L26.8448 3.90674C26.7901 3.85205 26.7217 3.82812 26.6499 3.82812C26.5782 3.82812 26.5098 3.85547 26.4551 3.90674L12.2432 18.0913C12.1938 18.1429 12.1658 18.2113 12.1646 18.2827ZM14.335 19.0894L26.6499 6.80176L28.1949 8.34326L15.8731 20.6377L14.3111 20.6753L14.335 19.0894Z" fill="white"/>
</svg>
