<svg width="26" height="30" viewBox="0 0 26 30" fill="none" xmlns="http://www.w3.org/2000/svg">
<path d="M25.1052 23.3791C24.6515 24.4273 24.1145 25.392 23.4923 26.2791C22.6442 27.4883 21.9498 28.3253 21.4146 28.7901C20.585 29.553 19.6961 29.9438 18.7443 29.966C18.061 29.966 17.237 29.7715 16.2778 29.3771C15.3154 28.9845 14.431 28.79 13.6223 28.79C12.7742 28.79 11.8646 28.9845 10.8917 29.3771C9.91725 29.7715 9.13227 29.9771 8.53209 29.9974C7.61932 30.0363 6.70953 29.6344 5.80145 28.79C5.22184 28.2845 4.49686 27.4179 3.62832 26.1901C2.6965 24.8791 1.93045 23.3588 1.33021 21.6254C0.6875 19.7532 0.365234 17.9404 0.365234 16.1852C0.365234 14.1747 0.799648 12.4407 1.66982 10.9876C2.35373 9.82043 3.26352 8.89975 4.40211 8.22381C5.5407 7.54787 6.77111 7.20346 8.09604 7.18143C8.82102 7.18143 9.77176 7.40566 10.9532 7.84641C12.1313 8.28861 12.8878 8.51291 13.2194 8.51291C13.4674 8.51291 14.3077 8.2507 15.7323 7.72793C17.0795 7.24313 18.2165 7.04238 19.1479 7.12148C21.6719 7.32522 23.5681 8.32014 24.8292 10.1127C22.5719 11.4805 21.4553 13.3961 21.4775 15.8537C21.4979 17.7679 22.1923 19.3608 23.5571 20.6255C24.1755 21.2126 24.8663 21.6663 25.6347 21.9884C25.4681 22.4717 25.2922 22.9347 25.1052 23.3791H25.1052ZM19.3165 0.600176C19.3165 2.10053 18.7684 3.50139 17.6758 4.79801C16.3573 6.33943 14.7626 7.23012 13.0332 7.08961C13.0101 6.90098 12.9984 6.71112 12.9984 6.52107C12.9984 5.08072 13.6254 3.5393 14.7389 2.279C15.2948 1.64092 16.0018 1.11029 16.8592 0.687012C17.7147 0.270059 18.524 0.0394336 19.285 0C19.3072 0.200566 19.3166 0.401133 19.3166 0.600117L19.3165 0.600176Z" fill="#9BA2AC"/>
</svg>
