<svg width="200" height="50" viewBox="0 0 200 50" fill="none" xmlns="http://www.w3.org/2000/svg">
<path d="M93.43 12.2305C92.89 12.5305 91.36 13.4005 91.18 13.4905V38.8405H93.43V36.2005L93.85 36.7405C94.4648 37.539 95.2558 38.1846 96.1613 38.6269C97.0668 39.0693 98.0623 39.2964 99.07 39.2905C103.36 39.2905 106.07 35.2105 106.07 28.9405C106.07 22.6705 103.67 19.2505 99.44 19.2505C98.3638 19.2722 97.3055 19.5298 96.3397 20.0049C95.3738 20.48 94.524 21.1613 93.85 22.0005L93.43 22.4505V12.2305ZM148.96 12.2305C148.42 12.5305 146.89 13.4005 146.71 13.4905V38.8405H149V33.3505L152.63 28.2805C152.63 28.2805 157.49 38.6005 157.63 38.8705H160C159.67 38.2105 154 26.4205 154 26.4205C154 26.4205 158.35 20.4205 158.86 19.7005H156.4C155.68 20.7005 150.19 28.7605 150.19 28.7005L149 30.6505V12.2305H148.96ZM73.96 13.5805L70 15.6505V19.5805H66.7V23.2105H70.06V34.1005C70.06 37.1005 71.8 39.1005 74.44 39.1005C75.6593 39.1487 76.8669 38.8468 77.92 38.2305L78.92 34.5405L78.71 34.6905C77.8382 35.2831 76.8223 35.6286 75.77 35.6905C74.48 35.6905 73.94 35.0305 73.94 33.5305V23.2105H77.94V19.5505H73.94L73.96 13.5805ZM50.11 19.2505C47.5346 19.1957 45.0338 20.1174 43.11 21.8305C42.0945 22.7671 41.2916 23.9104 40.7551 25.1834C40.2186 26.4564 39.9612 27.8296 40 29.2105C39.9525 30.587 40.195 31.958 40.7118 33.2346C41.2287 34.5112 42.0083 35.6648 43 36.6205C44.929 38.325 47.4262 39.2454 50 39.2005C51.3223 39.2381 52.6353 38.9687 53.8359 38.4135C55.0366 37.8582 56.0922 37.0323 56.92 36.0005L57 35.9005L54.75 33.1705V33.2605C54.1444 33.9218 53.4116 34.4539 52.5953 34.8251C51.7791 35.1962 50.8964 35.3988 50 35.4205C49.19 35.4354 48.3857 35.2833 47.6371 34.9737C46.8885 34.6641 46.2116 34.2037 45.6487 33.6211C45.0858 33.0385 44.649 32.3462 44.3653 31.5874C44.0816 30.8286 43.9573 30.0195 44 29.2105C43.9543 28.4008 44.0766 27.5904 44.3591 26.8303C44.6417 26.0701 45.0785 25.3766 45.642 24.7934C46.2055 24.2102 46.8835 23.7498 47.6335 23.4413C48.3835 23.1327 49.1892 22.9827 50 23.0005C50.8869 23.0183 51.7605 23.2193 52.5659 23.591C53.3713 23.9628 54.0911 24.4971 54.68 25.1605L54.74 25.2805L57 22.5805L56.94 22.5205C56.1317 21.4847 55.0943 20.6503 53.9093 20.0829C52.7242 19.5155 51.4237 19.2306 50.11 19.2505ZM116.56 19.2505C114.424 19.2324 112.316 19.7262 110.41 20.6905L111.22 22.5205C112.771 21.5959 114.544 21.1087 116.35 21.1105C119.29 21.1105 120.79 22.6405 120.79 25.7005V28.4605L120.4 28.2505C118.961 27.5181 117.365 27.1474 115.75 27.1705C112.3 27.1705 108.61 28.7605 108.61 33.1705C108.61 38.6305 112.72 39.2305 114.52 39.2305C115.638 39.2284 116.742 38.98 117.753 38.503C118.764 38.026 119.657 37.332 120.37 36.4705L120.79 36.0205V38.8105H123V25.4005C123 21.2605 120.9 19.2505 116.52 19.2505H116.56ZM135.56 19.2505C134.535 19.2291 133.522 19.4705 132.617 19.952C131.712 20.4334 130.945 21.1387 130.39 22.0005L129.94 22.6605V19.6605H127.69V38.8405H129.94V27.5905C129.94 23.5905 131.8 21.2005 134.94 21.2005C138.08 21.2005 139.74 23.2005 139.74 27.5905V38.8405H142V27.0805C142 21.9505 139.78 19.2505 135.52 19.2505H135.56ZM59.33 19.5505V38.8405H63.26V19.5505H59.29H59.33ZM81.98 19.5505V38.8405H85.98V19.5505H81.98ZM98.77 21.2005C102.04 21.2005 103.9 24.0505 103.9 29.0005C103.9 34.5205 102.22 37.3405 98.9 37.3405C97.8106 37.328 96.742 37.0411 95.7929 36.5062C94.8438 35.9714 94.0449 35.2059 93.47 34.2805V24.1405C94.0512 23.2642 94.8338 22.54 95.7525 22.0285C96.6712 21.517 97.699 21.233 98.75 21.2005H98.77ZM115.57 28.9105C117.329 28.788 119.087 29.1659 120.64 30.0005L120.79 30.0605V34.3205C120.157 35.277 119.297 36.0616 118.286 36.6044C117.276 37.1471 116.147 37.4309 115 37.4305C112.3 37.4305 110.8 35.8405 110.8 32.9905C110.8 30.4405 112.6 28.9105 115.57 28.9105Z" fill="#020168"/>
<path d="M88.2099 16.1603C86.4429 13.6392 84.0944 11.581 81.3632 10.16C78.632 8.73897 75.5986 7.99707 72.5199 7.99707C69.4412 7.99707 66.4078 8.73897 63.6767 10.16C60.9455 11.581 58.5969 13.6392 56.8299 16.1603L56.6499 16.4303H61.1799L61.2399 16.3703C62.6886 14.8267 64.4382 13.5964 66.3809 12.7554C68.3236 11.9144 70.418 11.4804 72.5349 11.4804C74.6518 11.4804 76.7463 11.9144 78.6889 12.7554C80.6316 13.5964 82.3813 14.8267 83.8299 16.3703L83.8899 16.4303H88.4199L88.2099 16.1603Z" fill="#FF0100"/>
</svg>
