<svg width="20" height="20" viewBox="0 0 20 20" fill="none" xmlns="http://www.w3.org/2000/svg">
<path d="M0.853598 7.91111L1.68693 7.42222V9.26667H16.1314V7.43889L16.9536 7.91111C17.0806 7.97753 17.2283 7.99232 17.3659 7.9524C17.5035 7.91248 17.6204 7.82092 17.6921 7.69687C17.7638 7.57281 17.7848 7.42585 17.7507 7.28667C17.7166 7.14749 17.6301 7.02687 17.5092 6.95L8.90915 2L0.298042 6.95C0.23165 6.98473 0.17297 7.03253 0.125531 7.09053C0.0780924 7.14853 0.0428756 7.21552 0.0219994 7.28748C0.00112309 7.35944 -0.00498114 7.43488 0.00405379 7.50926C0.0130887 7.58364 0.0370762 7.65542 0.074573 7.72029C0.11207 7.78516 0.162301 7.84178 0.222245 7.88673C0.282189 7.93168 0.350607 7.96405 0.423383 7.98187C0.496158 7.9997 0.571788 8.00262 0.645722 7.99046C0.719656 7.9783 0.790365 7.95131 0.853598 7.91111ZM8.82582 4.32778C8.89338 4.28877 8.97003 4.26823 9.04804 4.26823C9.12606 4.26823 9.2027 4.28877 9.27026 4.32778L13.0036 6.48889H11.2147L9.04804 5.24444L6.88138 6.48889H5.09804L8.82582 4.32778Z" fill="black"/>
<path d="M17.1592 15.3774H16.6869V14.9052C16.6869 14.7358 16.6196 14.5733 16.4998 14.4534C16.38 14.3336 16.2175 14.2663 16.048 14.2663H14.4647V10.1719H12.2425V14.2663H10.0203V10.1719H7.79804V14.2663H5.57582V10.1719H3.3536V14.2663H1.77026C1.60082 14.2663 1.43832 14.3336 1.3185 14.4534C1.19869 14.5733 1.13137 14.7358 1.13137 14.9052V15.3774H0.659153C0.489709 15.3774 0.327205 15.4447 0.20739 15.5646C0.087575 15.6844 0.0202637 15.8469 0.0202637 16.0163V17.5997H17.798V16.0163C17.798 15.8469 17.7307 15.6844 17.6109 15.5646C17.4911 15.4447 17.3286 15.3774 17.1592 15.3774Z" fill="black"/>
</svg>
