<svg width="33" height="33" viewBox="0 0 33 33" fill="none" xmlns="http://www.w3.org/2000/svg">
<path d="M9.72566 0.0527344H23.4511C28.6799 0.0527344 32.9283 4.3011 32.9283 9.52986V23.2553C32.9283 25.7688 31.9298 28.1794 30.1525 29.9567C28.3752 31.734 25.9646 32.7325 23.4511 32.7325H9.72566C4.4969 32.7325 0.248535 28.4841 0.248535 23.2553V9.52986C0.248535 7.01637 1.24702 4.60583 3.02432 2.82852C4.80163 1.05121 7.21217 0.0527344 9.72566 0.0527344ZM9.39886 3.32071C7.83876 3.32071 6.34257 3.94045 5.23941 5.04361C4.13626 6.14676 3.51651 7.64296 3.51651 9.20306V23.5821C3.51651 26.8338 6.14723 29.4645 9.39886 29.4645H23.7779C25.338 29.4645 26.8342 28.8448 27.9374 27.7416C29.0406 26.6384 29.6603 25.1422 29.6603 23.5821V9.20306C29.6603 5.95143 27.0296 3.32071 23.7779 3.32071H9.39886ZM25.1668 5.77169C25.7085 5.77169 26.2281 5.98688 26.6111 6.36992C26.9941 6.75296 27.2093 7.27247 27.2093 7.81417C27.2093 8.35587 26.9941 8.87539 26.6111 9.25843C26.2281 9.64147 25.7085 9.85666 25.1668 9.85666C24.6251 9.85666 24.1056 9.64147 23.7226 9.25843C23.3395 8.87539 23.1244 8.35587 23.1244 7.81417C23.1244 7.27247 23.3395 6.75296 23.7226 6.36992C24.1056 5.98688 24.6251 5.77169 25.1668 5.77169ZM16.5884 8.22267C18.7552 8.22267 20.8333 9.08343 22.3654 10.6156C23.8976 12.1477 24.7583 14.2258 24.7583 16.3926C24.7583 18.5594 23.8976 20.6375 22.3654 22.1696C20.8333 23.7018 18.7552 24.5625 16.5884 24.5625C14.4216 24.5625 12.3435 23.7018 10.8114 22.1696C9.27923 20.6375 8.41847 18.5594 8.41847 16.3926C8.41847 14.2258 9.27923 12.1477 10.8114 10.6156C12.3435 9.08343 14.4216 8.22267 16.5884 8.22267ZM16.5884 11.4906C15.2883 11.4906 14.0415 12.0071 13.1222 12.9264C12.2029 13.8457 11.6864 15.0925 11.6864 16.3926C11.6864 17.6927 12.2029 18.9395 13.1222 19.8588C14.0415 20.7781 15.2883 21.2946 16.5884 21.2946C17.8885 21.2946 19.1353 20.7781 20.0546 19.8588C20.9739 18.9395 21.4904 17.6927 21.4904 16.3926C21.4904 15.0925 20.9739 13.8457 20.0546 12.9264C19.1353 12.0071 17.8885 11.4906 16.5884 11.4906Z" fill="#9BA2AC"/>
</svg>
