<svg width="19" height="14" viewBox="0 0 19 14" fill="none" xmlns="http://www.w3.org/2000/svg">
<path d="M11.6475 0C12.9661 0 14.255 0.390993 15.3513 1.12354C16.4477 1.85608 17.3021 2.89727 17.8067 4.11544C18.3113 5.33362 18.4433 6.67406 18.1861 7.96727C17.9289 9.26048 17.2939 10.4484 16.3616 11.3807C15.4292 12.3131 14.2413 12.948 12.9481 13.2052C11.6549 13.4625 10.3145 13.3304 9.0963 12.8259C7.87813 12.3213 6.83694 11.4668 6.1044 10.3705C5.37185 9.27414 4.98086 7.98521 4.98086 6.66667C4.98086 4.89856 5.68324 3.20286 6.93348 1.95262C8.18372 0.702379 9.87942 0 11.6475 0ZM1.64753 6.66667C1.64871 7.69966 1.96981 8.70694 2.56669 9.55004C3.16357 10.3931 4.00694 11.0307 4.98086 11.375V13.1167C3.5542 12.7438 2.29142 11.9084 1.39015 10.7413C0.488889 9.57423 0 8.14125 0 6.66667C0 5.19208 0.488889 3.75911 1.39015 2.59201C2.29142 1.42491 3.5542 0.589547 4.98086 0.216667V1.95833C4.00694 2.30267 3.16357 2.9402 2.56669 3.7833C1.96981 4.62639 1.64871 5.63367 1.64753 6.66667Z" fill="#383838"/>
</svg>
