<svg width="35" height="35" fill="none" xmlns="http://www.w3.org/2000/svg"><path d="M30.898 17.5h-1.914a.274.274 0 00-.273.273v10.938H6.289V6.289h10.938c.15 0 .273-.123.273-.273V4.102a.274.274 0 00-.273-.274H4.922c-.605 0-1.094.489-1.094 1.094v25.156c0 .605.489 1.094 1.094 1.094h25.156c.605 0 1.094-.489 1.094-1.094V17.773a.274.274 0 00-.274-.273z" fill="#fff"/><path d="M12.165 18.283l-.065 4.064a.548.548 0 00.546.553h.014l4.033-.099a.284.284 0 00.185-.078L31.093 8.538a.274.274 0 000-.386l-4.248-4.245a.283.283 0 00-.39 0L12.243 18.09a.284.284 0 00-.078.192zm2.17.806L26.65 6.802l1.545 1.541-12.322 12.295-1.562.037.024-1.586z" fill="#fff"/></svg>