<svg width="26" height="30" fill="none" xmlns="http://www.w3.org/2000/svg"><path d="M25.105 23.38a16.312 16.312 0 01-1.613 2.9c-.848 1.208-1.542 2.045-2.077 2.51-.83.763-1.719 1.154-2.67 1.176-.684 0-1.508-.195-2.467-.589-.963-.392-1.847-.587-2.656-.587-.848 0-1.757.195-2.73.587-.975.395-1.76.6-2.36.62-.913.04-1.822-.363-2.73-1.207-.58-.505-1.305-1.372-2.174-2.6-.932-1.31-1.698-2.831-2.298-4.565-.643-1.872-.965-3.685-.965-5.44 0-2.01.435-3.744 1.305-5.197a7.654 7.654 0 012.732-2.764A7.35 7.35 0 018.096 7.18c.725 0 1.676.225 2.857.665 1.178.443 1.935.667 2.266.667.248 0 1.089-.262 2.513-.785 1.348-.485 2.485-.686 3.416-.607 2.524.204 4.42 1.2 5.681 2.992-2.257 1.367-3.374 3.283-3.352 5.74.02 1.915.715 3.508 2.08 4.772a6.83 6.83 0 002.078 1.363 22.43 22.43 0 01-.53 1.391zM19.317.6c0 1.5-.549 2.901-1.641 4.198-1.319 1.541-2.913 2.432-4.643 2.292a4.677 4.677 0 01-.035-.569c0-1.44.627-2.982 1.74-4.242.557-.638 1.264-1.169 2.121-1.592C17.715.27 18.524.039 19.285 0c.022.2.032.401.032.6z" fill="#9BA2AC"/></svg>