<svg width="200" height="50" fill="none" xmlns="http://www.w3.org/2000/svg"><path d="M93.43 12.23c-.54.3-2.07 1.17-2.25 1.26v25.35h2.25V36.2l.42.54a6.54 6.54 0 005.22 2.55c4.29 0 7-4.08 7-10.35s-2.4-9.69-6.63-9.69A7.36 7.36 0 0093.85 22l-.42.45V12.23zm55.53 0c-.54.3-2.07 1.17-2.25 1.26v25.35H149v-5.49l3.63-5.07s4.86 10.32 5 10.59H160c-.33-.66-6-12.45-6-12.45s4.35-6 4.86-6.72h-2.46c-.72 1-6.21 9.06-6.21 9L149 30.65V12.23h-.04zm-75 1.35L70 15.65v3.93h-3.3v3.63h3.36V34.1c0 3 1.74 5 4.38 5a6.39 6.39 0 003.48-.87l1-3.69-.21.15a5.84 5.84 0 01-2.94 1c-1.29 0-1.83-.66-1.83-2.16V23.21h4v-3.66h-4l.02-5.97zm-23.85 5.67a10.2 10.2 0 00-7 2.58A9.67 9.67 0 0040 29.21a9.821 9.821 0 003 7.41 10.3 10.3 0 007 2.58 8.56 8.56 0 006.92-3.2l.08-.1-2.25-2.73v.09A6.66 6.66 0 0150 35.42a5.899 5.899 0 01-6-6.21A5.881 5.881 0 0150 23a6.431 6.431 0 014.68 2.16l.06.12 2.26-2.7-.06-.06a8.501 8.501 0 00-6.83-3.27zm66.45 0a13.37 13.37 0 00-6.15 1.44l.81 1.83a10 10 0 015.13-1.41c2.94 0 4.44 1.53 4.44 4.59v2.76l-.39-.21a9.938 9.938 0 00-4.65-1.08c-3.45 0-7.14 1.59-7.14 6 0 5.46 4.11 6.06 5.91 6.06a7.61 7.61 0 005.85-2.76l.42-.45v2.79H123V25.4c0-4.14-2.1-6.15-6.48-6.15h.04zm19 0a5.998 5.998 0 00-5.17 2.75l-.45.66v-3h-2.25v19.18h2.25V27.59c0-4 1.86-6.39 5-6.39 3.14 0 4.8 2 4.8 6.39v11.25H142V27.08c0-5.13-2.22-7.83-6.48-7.83h.04zm-76.23.3v19.29h3.93V19.55h-3.97.04zm22.65 0v19.29h4V19.55h-4zm16.79 1.65c3.27 0 5.13 2.85 5.13 7.8 0 5.52-1.68 8.34-5 8.34a6.48 6.48 0 01-5.43-3.06V24.14a6.58 6.58 0 015.28-2.94h.02zm16.8 7.71a9.34 9.34 0 015.07 1.09l.15.06v4.26a6.937 6.937 0 01-5.79 3.11c-2.7 0-4.2-1.59-4.2-4.44 0-2.55 1.8-4.08 4.77-4.08z" fill="#020168"/><path d="M88.21 16.16a19.16 19.16 0 00-31.38 0l-.18.27h4.53l.06-.06a15.49 15.49 0 0122.59 0l.06.06h4.53l-.21-.27z" fill="#FF0100"/></svg>