<svg width="20" height="20" fill="none" xmlns="http://www.w3.org/2000/svg"><path d="M.854 7.911l.833-.489v1.845H16.13V7.439l.823.472a.556.556 0 00.555-.961L8.91 2 .298 6.95a.556.556 0 10.556.961zm7.972-3.583a.444.444 0 01.444 0l3.734 2.16h-1.79L9.049 5.245 6.881 6.49H5.098l3.728-2.161zm8.334 11.049h-.473v-.472a.64.64 0 00-.639-.639h-1.583v-4.094h-2.223v4.094H10.02v-4.094H7.798v4.094H5.576v-4.094H3.354v4.094H1.77a.639.639 0 00-.639.64v.471H.66a.639.639 0 00-.639.64V17.6h17.778v-1.584a.639.639 0 00-.639-.639z" fill="#000"/></svg>