<svg width="20" height="16" fill="none" xmlns="http://www.w3.org/2000/svg"><path fill-rule="evenodd" clip-rule="evenodd" d="M17.5 1.75h-15A1.25 1.25 0 001.25 3v10a1.25 1.25 0 001.25 1.25h15A1.25 1.25 0 0018.75 13V3a1.25 1.25 0 00-1.25-1.25zM2.5.5A2.5 2.5 0 000 3v10a2.5 2.5 0 002.5 2.5h15A2.5 2.5 0 0020 13V3A2.5 2.5 0 0017.5.5h-15z" fill="#000"/><path d="M13.75 4.875a.625.625 0 01.625-.625h2.5a.625.625 0 01.625.625v1.25a.625.625 0 01-.625.625h-2.5a.625.625 0 01-.625-.625v-1.25zM1.25 9.25h17.5v2.5H1.25v-2.5z" fill="#000"/></svg>