<svg width="20" height="20" fill="none" xmlns="http://www.w3.org/2000/svg"><path d="M16.875 2.5H.625V15h16.25V2.5zm-1.25 11.25H1.875v-10h13.75v10z" fill="#000"/><path d="M18.125 5.625V16.25H3.75v1.25h15.625V5.625h-1.25z" fill="#000"/><path d="M8.75 11.815c1.55 0 2.813-1.373 2.813-3.06S10.3 5.695 8.75 5.695c-1.55 0-2.813 1.373-2.813 3.06s1.262 3.06 2.813 3.06zm0-4.87c.862 0 1.563.812 1.563 1.81s-.701 1.81-1.563 1.81-1.563-.812-1.563-1.81.701-1.81 1.563-1.81zM3.125 5.313h1.25v6.875h-1.25V5.311zm10 0h1.25v6.875h-1.25V5.311z" fill="#000"/></svg>