<svg width="20" height="20" viewBox="0 0 20 20" fill="none" xmlns="http://www.w3.org/2000/svg">
<path d="M16.875 2.5H0.625V15H16.875V2.5ZM15.625 13.75H1.875V3.75H15.625V13.75Z" fill="black"/>
<path d="M18.125 5.625V16.25H3.75V17.5H19.375V5.625H18.125Z" fill="black"/>
<path d="M8.75 11.8145C10.3008 11.8145 11.5625 10.442 11.5625 8.75492C11.5625 7.06785 10.3008 5.69531 8.75 5.69531C7.19922 5.69531 5.9375 7.06781 5.9375 8.75492C5.9375 10.442 7.19922 11.8145 8.75 11.8145ZM8.75 6.94531C9.61156 6.94531 10.3125 7.75711 10.3125 8.75492C10.3125 9.75273 9.61156 10.5645 8.75 10.5645C7.88844 10.5645 7.1875 9.75273 7.1875 8.75492C7.1875 7.75711 7.88844 6.94531 8.75 6.94531Z" fill="black"/>
<path d="M3.125 5.3125H4.375V12.1875H3.125V5.3125Z" fill="black"/>
<path d="M13.125 5.3125H14.375V12.1875H13.125V5.3125Z" fill="black"/>
</svg>
