<svg width="33" height="33" fill="none" xmlns="http://www.w3.org/2000/svg"><path d="M9.726.053H23.45c5.229 0 9.477 4.248 9.477 9.477v13.725a9.477 9.477 0 01-9.477 9.478H9.726c-5.23 0-9.477-4.249-9.477-9.478V9.53A9.477 9.477 0 019.726.053zM9.399 3.32a5.882 5.882 0 00-5.882 5.882v14.38a5.879 5.879 0 005.882 5.882h14.379a5.882 5.882 0 005.882-5.883V9.203a5.879 5.879 0 00-5.882-5.882H9.398zm15.768 2.45a2.043 2.043 0 110 4.086 2.043 2.043 0 010-4.085zm-8.579 2.452a8.17 8.17 0 110 16.34 8.17 8.17 0 010-16.34zm0 3.268a4.902 4.902 0 100 9.803 4.902 4.902 0 000-9.803z" fill="#9BA2AC"/></svg>