<svg width="33" height="33" fill="none" xmlns="http://www.w3.org/2000/svg"><path d="M21.624.053H11.592C2.442.053.268 2.226.268 11.376V21.41c0 9.15 2.173 11.324 11.324 11.324h10.032c9.15 0 11.324-2.174 11.324-11.324V11.376c0-9.15-2.173-11.323-11.324-11.323zm5.033 23.317H24.27c-.898 0-1.176-.736-2.761-2.353-1.438-1.356-2.059-1.552-2.402-1.552-.474 0-.621.13-.621.817v2.14c0 .572-.18.931-1.7.931-2.516 0-5.31-1.536-7.27-4.362-2.958-4.15-3.759-7.288-3.759-7.909 0-.343.115-.67.8-.67H8.96c.604 0 .833.262 1.062.915 1.176 3.432 3.137 6.373 3.938 6.373.31 0 .441-.147.441-.899v-3.513c-.082-1.601-.948-1.748-.948-2.32 0-.294.23-.556.605-.556H17.8c.506 0 .686.262.686.883v4.722c0 .506.212.686.376.686.294 0 .555-.18 1.095-.735 1.715-1.912 2.94-4.87 2.94-4.87.164-.343.426-.67 1.063-.67h2.337c.718 0 .882.376.718.883-.294 1.389-3.202 5.49-3.17 5.49-.26.409-.359.588 0 1.062.246.343 1.079 1.062 1.634 1.7 1.014 1.16 1.798 2.124 2.01 2.794.18.67-.147 1.013-.833 1.013z" fill="#9BA2AC"/></svg>