<svg width="33" height="33" viewBox="0 0 33 33" fill="none" xmlns="http://www.w3.org/2000/svg">
<path d="M16.5689 0.333008C7.58195 0.333008 0.229004 7.66961 0.229004 16.7056C0.229004 24.8755 6.20939 31.6565 14.0199 32.882V21.4441H9.86953V16.7056H14.0199V13.0944C14.0199 8.99314 16.4545 6.73824 20.1963 6.73824C21.9774 6.73824 23.8401 7.0487 23.8401 7.0487V11.0846H21.7813C19.7551 11.0846 19.1179 12.3428 19.1179 13.6337V16.7056H23.6604L22.9251 21.4441H19.1179V32.882C22.9683 32.2739 26.4744 30.3093 29.0034 27.3429C31.5324 24.3765 32.9175 20.6037 32.9087 16.7056C32.9087 7.66961 25.5558 0.333008 16.5689 0.333008Z" fill="#9BA2AC"/>
</svg>
