<svg width="33" height="33" viewBox="0 0 33 33" fill="none" xmlns="http://www.w3.org/2000/svg">
<path d="M21.6243 0.0527344H11.5916C2.44127 0.0527344 0.268066 2.22594 0.268066 11.3763V21.4089C0.268066 30.5593 2.44127 32.7325 11.5916 32.7325H21.6243C30.7746 32.7325 32.9478 30.5593 32.9478 21.4089V11.3763C32.9478 2.22594 30.7746 0.0527344 21.6243 0.0527344ZM26.6569 23.3697H24.2713C23.3726 23.3697 23.0949 22.6344 21.5099 21.0168C20.072 19.6606 19.4511 19.4645 19.1079 19.4645C18.6341 19.4645 18.487 19.5952 18.487 20.2815V22.422C18.487 22.9939 18.3073 23.3534 16.7877 23.3534C14.2713 23.3534 11.4772 21.8174 9.51643 18.9906C6.55891 14.8403 5.75826 11.7031 5.75826 11.0821C5.75826 10.739 5.87264 10.4122 6.55891 10.4122H8.96087C9.56545 10.4122 9.79421 10.6736 10.023 11.3272C11.1994 14.7586 13.1602 17.6998 13.9609 17.6998C14.2713 17.6998 14.402 17.5527 14.402 16.8011V13.288C14.3203 11.6867 13.4543 11.5397 13.4543 10.9678C13.4543 10.6736 13.6831 10.4122 14.0589 10.4122H17.8007C18.3073 10.4122 18.487 10.6736 18.487 11.2946V16.0168C18.487 16.5233 18.6994 16.7031 18.8628 16.7031C19.1569 16.7031 19.4184 16.5233 19.9576 15.9678C21.6733 14.056 22.8988 11.0985 22.8988 11.0985C23.0622 10.7553 23.3236 10.4285 23.9609 10.4285H26.2975C27.0164 10.4285 27.1798 10.8044 27.0164 11.3109C26.7223 12.6998 23.8138 16.8011 23.8465 16.8011C23.5851 17.2096 23.487 17.3893 23.8465 17.8632C24.0916 18.2063 24.9249 18.9253 25.4805 19.5625C26.4935 20.7227 27.2779 21.6867 27.4903 22.3566C27.67 23.0266 27.3432 23.3697 26.6569 23.3697Z" fill="#9BA2AC"/>
</svg>
