<svg width="605" height="152" fill="none" xmlns="http://www.w3.org/2000/svg"><path d="M72.963 27.725h94.955v95.425H72.963V27.725z" fill="#FFED00"/><path d="M282.928 85.697l-2.45 15.2h14.762l2.45-15.2h10.86l-6.655 40.888h-10.769l2.813-17.54h-14.762l-2.813 17.54h-10.89l6.776-40.888h10.799-.121zm43.016 0H314.6l-6.806 40.888h11.132l3.025-17.662 11.495 17.784h14.429l-15.125-21.554 20.267-19.334h-13.612L323.1 102.661l2.844-16.964zm-77.138 25.567l-2.359-13.072-6.806 13.072h9.165zm1.634 8.117h-15.367l-4.084 7.083h-11.858l23.202-40.888h12.1l9.377 40.888h-11.827l-1.543-7.083zm-29.191-5.199a13.746 13.746 0 01-3.268 7.418c-4.325 4.469-10.889 4.712-15.124 4.833h-16.305l7.048-40.736h27.77l-1.301 7.996H203.22l-1.301 8.116h4.809c4.101-.287 8.17.886 11.496 3.314a9.715 9.715 0 012.716 4.157 9.76 9.76 0 01.309 4.963v-.061zm-17.576-4.742h-3.025l-1.512 8.725h2.813c6.322 0 7.623-1.764 7.986-4.135.363-2.371 0-4.59-6.322-4.59h.06zm281.265-61.621h11.253a5.448 5.448 0 00-1.961-3.188 5.389 5.389 0 00-3.545-1.16 5.272 5.272 0 00-3.721 1.043 5.326 5.326 0 00-2.026 3.305zm20.237 4.651v1.064h-20.389a5.468 5.468 0 00.264 2.438 5.446 5.446 0 005.786 3.642 4.64 4.64 0 002.681-.585 4.67 4.67 0 001.887-1.999h9.378c-1.513 6.597-7.623 9.546-13.825 9.546-9.075 0-15.82-5.168-15.82-14.835a14.113 14.113 0 014.198-10.88 13.997 13.997 0 015.037-3.17 13.943 13.943 0 015.89-.786c9.498 0 14.883 6.08 14.883 15.565h.03zm-268.923-7.417a6.026 6.026 0 00-4.53 1.721 6.081 6.081 0 00-1.822 4.51 6.11 6.11 0 001.77 4.454 6.042 6.042 0 004.431 1.779 5.81 5.81 0 004.504-1.707 5.884 5.884 0 001.697-4.525 6.098 6.098 0 00-1.77-4.453 6.04 6.04 0 00-4.431-1.78h.151zm15.428-7.661v27.816H242v-3.04a9.422 9.422 0 01-3.583 3.071 9.366 9.366 0 01-4.615.942 14.014 14.014 0 01-5.436-1.245 14.073 14.073 0 01-4.527-3.27 14.195 14.195 0 01-3.74-10.32 14.152 14.152 0 013.676-10.307 14.047 14.047 0 014.495-3.285 13.982 13.982 0 015.411-1.274 10.783 10.783 0 014.554.892A10.832 10.832 0 01242 40.097v-2.705h9.68zm141.721 7.66a6.033 6.033 0 00-4.431 1.78 6.08 6.08 0 00-1.34 2.043 6.074 6.074 0 00-.43 2.41 6.074 6.074 0 00.43 2.41 6.08 6.08 0 003.372 3.39 6.031 6.031 0 002.399.432 5.812 5.812 0 004.504-1.707 5.87 5.87 0 001.697-4.525 6.095 6.095 0 00-1.769-4.453 6.03 6.03 0 00-4.432-1.779zm15.488-7.66v27.816H399.3v-3.04a9.427 9.427 0 01-3.582 3.071 9.366 9.366 0 01-4.616.942 14.018 14.018 0 01-5.436-1.245 14.055 14.055 0 01-4.528-3.27 14.129 14.129 0 01-2.907-4.78 14.214 14.214 0 01-.832-5.54 14.165 14.165 0 01.814-5.525 14.077 14.077 0 012.886-4.773 14.017 14.017 0 019.912-4.538 10.794 10.794 0 018.44 3.648v-2.766h9.438zM188.064 65.208V24.32h16.426c11.011 0 14.187 7.904 14.187 13.437a13.118 13.118 0 01-4.032 10.014 13.005 13.005 0 01-4.696 2.875c-1.752.612-3.613.84-5.459.669h-6.05v13.893h-10.376zm10.437-32.042v9.394h3.509c4.809 0 5.263-3.04 5.263-4.59 0-1.551-.696-4.591-5.263-4.591h-3.025l-.363-.213h-.121zm59.32 4.256v27.816h9.377l9.62-15.2v15.2h9.74V37.392h-9.377l-9.62 14.957V37.392l-9.74.03zm15.125-3.526a11.06 11.06 0 006.536-1.515 11.14 11.14 0 004.475-5.021l-6.323-2.371a4.405 4.405 0 01-1.66 2.547 4.371 4.371 0 01-2.907.857 4.31 4.31 0 01-2.919-.842 4.346 4.346 0 01-1.649-2.562l-6.322 2.37a11.223 11.223 0 004.447 4.933 11.145 11.145 0 006.443 1.543l-.121.06zm33.638 43.411V65.664c-5.748 0-15.367-2.371-15.367-14.38 0-12.007 9.498-14.257 15.367-14.257v-12.16h9.74v12.16c5.869 0 15.125 2.371 15.125 14.258 0 11.886-9.498 14.379-15.125 14.379v11.795l-9.74-.152zm9.075-33.44V59.31c3.297 0 6.564-2.371 6.564-7.782s-3.297-7.783-6.564-7.661zm-8.44 15.2v-15.2c-3.297 0-6.564 2.371-6.564 7.782 0 5.412 3.297 7.661 6.564 7.54v-.122zm43.015 18.362V65.664c-5.747 0-15.367-2.371-15.367-14.38 0-12.007 9.499-14.257 15.367-14.257v-12.16h9.741v12.16c5.868 0 15.367 2.371 15.367 14.258 0 11.886-9.499 14.379-15.367 14.379v11.795h-9.741v-.03zm9.075-33.44v15.443c3.298 0 6.565-2.371 6.565-7.783 0-5.41-3.298-7.782-6.565-7.66zm-8.56 15.2v-15.2c-3.298 0-6.686 2.37-6.686 7.782-.09.95.022 1.908.327 2.813a6.782 6.782 0 001.44 2.433 6.733 6.733 0 005.07 2.172h-.151zm64.493-21.797v27.816h9.377l9.62-15.2v15.2h9.74V37.392h-9.377l-9.741 14.835V37.392h-9.619zm15.125-3.527a11.063 11.063 0 006.407-1.565 11.138 11.138 0 004.392-4.94l-6.322-2.371a4.412 4.412 0 01-1.661 2.547 4.37 4.37 0 01-2.907.857 4.253 4.253 0 01-2.931-.825 4.299 4.299 0 01-1.637-2.58l-6.352 2.372a11.233 11.233 0 004.446 4.932 11.154 11.154 0 006.444 1.543l.121.03zm20.872 11.522a13.268 13.268 0 017.139-2.371c1.18 0 3.872.243 3.872 2.462 0 2.22-2.359 2.371-3.267 2.371h-4.81v6.08h4.235c1.422 0 3.993 0 3.993 2.372 0 .942-.574 2.705-3.993 2.705a14.8 14.8 0 01-8.318-2.584l-2.39 6.658a24.53 24.53 0 0012.433 3.283c11.132 0 12.553-6.475 12.553-8.603a6.917 6.917 0 00-1.573-4.45 6.867 6.867 0 00-4.053-2.39 6.806 6.806 0 003.993-6.475c0-6.476-6.806-7.783-11.011-7.783-3.942.074-7.82.996-11.374 2.706l2.571 6.019zm58.836 19.79h9.741V54.112h8.924v11.065h9.71V37.392h-9.741v9.789h-8.923v-9.79h-9.741l.03 27.786zm-338.86 61.287H69.575V24.32h101.64v102.144zm-3.297-98.74H72.963v95.426h94.955V27.725z" fill="#000"/><path d="M120.455 87.096l-29.19 29.336-11.617-11.674L108.9 75.453l-6.05-6.08v-12.16l-4.235-4.256v10.488l-3.63 3.648-14.883-14.714-3.63 3.648c.02-3.268.682-6.5 1.949-9.51a24.814 24.814 0 015.432-8.03 12.804 12.804 0 018.728-4.28 12.782 12.782 0 019.21 3.094l14.762 14.956-3.751 3.77 7.653 7.813 7.744-7.783-3.751-3.77L139.15 37.27a12.756 12.756 0 019.211-3.106 12.772 12.772 0 018.727 4.292 24.793 24.793 0 015.432 8.03 24.91 24.91 0 011.949 9.51l-3.63-3.647-14.883 14.835-3.63-3.648v-10.58l-4.205 4.257v12.16l-6.05 6.08 29.192 29.336-11.616 11.643-29.192-29.336z" fill="#000"/></svg>