<svg width="605" height="152" viewBox="0 0 605 152" fill="none" xmlns="http://www.w3.org/2000/svg">
<path d="M72.9629 27.7246H167.918V123.15H72.9629V27.7246Z" fill="#FFED00"/>
<path d="M282.928 85.6974L280.478 100.897H295.24L297.69 85.6974H308.55L301.895 126.585H291.126L293.939 109.045H279.177L276.364 126.585H265.474L272.25 85.6974H283.049H282.928ZM325.944 85.6974H314.6L307.794 126.585H318.926L321.951 108.923L333.446 126.707H347.875L332.75 105.153L353.017 85.819H339.405L323.1 102.661L325.944 85.6974ZM248.806 111.264L246.447 98.1918L239.641 111.264H248.806ZM250.44 119.381H235.073L230.989 126.464H219.131L242.333 85.5758H254.433L263.81 126.464H251.983L250.44 119.381ZM221.249 114.182C220.929 116.929 219.79 119.515 217.981 121.6C213.656 126.069 207.092 126.312 202.857 126.433H186.552L193.6 85.6974H221.37L220.069 93.6926H203.22L201.919 101.809H206.728C210.829 101.522 214.898 102.695 218.224 105.123C219.473 106.248 220.409 107.681 220.94 109.28C221.47 110.879 221.576 112.59 221.249 114.243V114.182ZM203.673 109.44H200.648L199.136 118.165H201.949C208.271 118.165 209.572 116.401 209.935 114.03C210.298 111.659 209.935 109.44 203.613 109.44H203.673ZM484.938 47.819H496.191C495.934 46.5568 495.238 45.4268 494.23 44.631C493.223 43.8348 491.968 43.4241 490.685 43.4718C489.357 43.3356 488.029 43.7077 486.964 44.5136C485.9 45.3195 485.174 46.5 484.938 47.819ZM505.175 52.4702V53.5342H484.786C484.69 54.3562 484.777 55.1898 485.05 55.9717C485.319 56.7539 485.76 57.4646 486.344 58.0498C486.925 58.635 487.633 59.0801 488.41 59.351C489.188 59.6221 490.02 59.7121 490.836 59.6142C491.768 59.6939 492.703 59.4899 493.517 59.029C494.33 58.5682 494.99 57.8717 495.404 57.0302H504.782C503.269 63.627 497.159 66.5758 490.957 66.5758C481.882 66.5758 475.137 61.4078 475.137 51.7406C475.022 49.7309 475.336 47.7196 476.062 45.8427C476.785 43.9658 477.905 42.2671 479.335 40.8611C480.769 39.4548 482.487 38.374 484.372 37.6919C486.257 37.0094 488.265 36.7413 490.262 36.9054C499.76 36.9054 505.145 42.9854 505.145 52.4702H505.175ZM236.252 45.0526C235.42 45.0104 234.588 45.1417 233.808 45.4378C233.028 45.7342 232.318 46.189 231.722 46.7742C231.125 47.3594 230.656 48.0619 230.342 48.8383C230.029 49.6144 229.878 50.4471 229.9 51.2846C229.879 52.1088 230.026 52.9283 230.33 53.6941C230.634 54.4596 231.09 55.1548 231.67 55.7379C232.25 56.3207 232.942 56.7791 233.704 57.0846C234.466 57.3905 235.281 57.5376 236.101 57.5166C236.93 57.5701 237.76 57.4458 238.536 57.1515C239.313 56.8572 240.018 56.4 240.605 55.8103C241.191 55.2205 241.646 54.5119 241.939 53.7315C242.232 52.9511 242.356 52.117 242.302 51.2846C242.323 50.4605 242.177 49.6409 241.873 48.8751C241.568 48.1096 241.112 47.4144 240.532 46.8313C239.952 46.2486 239.261 45.7901 238.499 45.4846C237.737 45.1788 236.921 45.0316 236.101 45.0526H236.252ZM251.68 37.3918V65.2078H242V62.1678C241.084 63.4802 239.851 64.5372 238.417 65.2391C236.983 65.9411 235.395 66.2651 233.802 66.1806C231.926 66.1344 230.078 65.7109 228.366 64.9357C226.655 64.1602 225.116 63.0485 223.839 61.6662C222.562 60.2836 221.573 58.6581 220.931 56.8858C220.288 55.1132 220.006 53.2293 220.099 51.3454C219.997 49.4679 220.27 47.5889 220.902 45.819C221.533 44.0488 222.51 42.4236 223.775 41.0386C225.041 39.6536 226.569 38.5367 228.27 37.7539C229.971 36.9711 231.811 36.5379 233.681 36.4798C235.245 36.443 236.799 36.7473 238.235 37.3718C239.671 37.9965 240.956 38.9261 242 40.0974V37.3918H251.68ZM393.401 45.0526C392.581 45.0316 391.765 45.1788 391.002 45.4846C390.243 45.7901 389.55 46.2486 388.97 46.8313C388.389 47.4144 387.935 48.1096 387.63 48.8751C387.324 49.6409 387.179 50.4605 387.2 51.2846C387.179 52.1088 387.324 52.9283 387.63 53.6941C387.935 54.4596 388.389 55.1548 388.97 55.7379C389.55 56.3207 390.243 56.7791 391.002 57.0846C391.765 57.3905 392.581 57.5376 393.401 57.5166C394.23 57.5701 395.059 57.4458 395.836 57.1515C396.614 56.8572 397.319 56.4 397.905 55.8103C398.492 55.2205 398.946 54.5119 399.239 53.7315C399.533 52.9511 399.657 52.117 399.602 51.2846C399.624 50.4605 399.478 49.6409 399.173 48.8751C398.867 48.1096 398.414 47.4144 397.833 46.8313C397.252 46.2486 396.559 45.7901 395.8 45.4846C395.038 45.1788 394.221 45.0316 393.401 45.0526ZM408.889 37.3918V65.2078H399.3V62.1678C398.383 63.4802 397.152 64.5372 395.718 65.2391C394.285 65.9411 392.696 66.2651 391.102 66.1806C389.227 66.1344 387.378 65.7109 385.666 64.9357C383.954 64.1602 382.414 63.0485 381.138 61.6662C379.861 60.2836 378.872 58.6581 378.231 56.8858C377.59 55.1132 377.305 53.2293 377.399 51.3454C377.302 49.4679 377.577 47.5898 378.213 45.8211C378.848 44.0528 379.828 42.4297 381.099 41.0477C382.366 39.6654 383.897 38.5522 385.6 37.773C387.3 36.9936 389.142 36.5643 391.011 36.5102C392.6 36.4595 394.176 36.7598 395.637 37.3903C397.095 38.0205 398.396 38.9656 399.451 40.1582V37.3918H408.889ZM188.064 65.2078V24.3198H204.49C215.501 24.3198 218.677 32.2238 218.677 37.7566C218.754 39.6183 218.434 41.4748 217.738 43.2019C217.043 44.9289 215.988 46.4866 214.645 47.7707C213.301 49.0545 211.7 50.0349 209.949 50.6462C208.197 51.2576 206.336 51.4856 204.49 51.315H198.44V65.2078H188.064ZM198.501 33.1662V42.5598H202.01C206.819 42.5598 207.273 39.5198 207.273 37.9694C207.273 36.419 206.577 33.379 202.01 33.379H198.985L198.622 33.1662H198.501ZM257.821 37.4222V65.2382H267.198L276.818 50.0382V65.2382H286.558V37.3918H277.181L267.561 52.3486V37.3918L257.821 37.4222ZM272.946 33.8958C275.228 34.0803 277.51 33.5511 279.482 32.3813C281.453 31.2112 283.016 29.4573 283.957 27.3598L277.634 24.9886C277.4 26.0089 276.811 26.9119 275.974 27.5358C275.137 28.1596 274.106 28.4637 273.067 28.3934C272.024 28.4765 270.988 28.1773 270.148 27.5514C269.308 26.9255 268.722 26.0151 268.499 24.9886L262.177 27.3598C263.13 29.4172 264.68 31.1367 266.624 32.2922C268.567 33.448 270.813 33.9858 273.067 33.835L272.946 33.8958ZM306.584 77.307V65.6638C300.836 65.6638 291.217 63.2926 291.217 51.2846C291.217 39.2766 300.715 37.027 306.584 37.027V24.867H316.324V37.027C322.193 37.027 331.449 39.3982 331.449 51.2846C331.449 63.171 321.951 65.6638 316.324 65.6638V77.459L306.584 77.307ZM315.659 43.867V59.3102C318.956 59.3102 322.223 56.939 322.223 51.5278C322.223 46.1166 318.926 43.7454 315.659 43.867ZM307.219 59.067V43.867C303.922 43.867 300.655 46.2382 300.655 51.6494C300.655 57.0606 303.952 59.3102 307.219 59.1886V59.067ZM350.234 77.4286V65.6638C344.487 65.6638 334.867 63.2926 334.867 51.2846C334.867 39.2766 344.366 37.027 350.234 37.027V24.867H359.975V37.027C365.843 37.027 375.342 39.3982 375.342 51.2846C375.342 63.171 365.843 65.6638 359.975 65.6638V77.459H350.234V77.4286ZM359.309 43.9886V59.4318C362.607 59.4318 365.874 57.0606 365.874 51.6494C365.874 46.2382 362.576 43.867 359.309 43.9886ZM350.749 59.1886V43.9886C347.451 43.9886 344.063 46.3598 344.063 51.771C343.973 52.7213 344.085 53.6795 344.39 54.5836C344.693 55.4877 345.186 56.317 345.83 57.0171C346.474 57.7173 347.261 58.2727 348.135 58.6469C349.009 59.0211 349.95 59.2056 350.9 59.1886H350.749ZM415.242 37.3918V65.2078H424.619L434.239 50.0078V65.2078H443.979V37.3918H434.602L424.861 52.227V37.3918H415.242ZM430.367 33.8654C432.611 34.0074 434.844 33.4617 436.774 32.2998C438.701 31.1382 440.234 29.4156 441.166 27.3598L434.844 24.9886C434.608 26.0089 434.021 26.9119 433.183 27.5358C432.345 28.1596 431.317 28.4637 430.276 28.3934C429.232 28.4898 428.189 28.1959 427.345 27.5677C426.504 26.9396 425.92 26.0214 425.708 24.9886L419.356 27.3598C420.309 29.4172 421.86 31.1367 423.802 32.2922C425.748 33.448 427.992 33.9858 430.246 33.835L430.367 33.8654ZM451.239 45.387C453.342 43.9236 455.822 43.1003 458.378 43.0158C459.558 43.0158 462.25 43.259 462.25 45.4782C462.25 47.6974 459.891 47.8494 458.983 47.8494H454.173V53.9294H458.408C459.83 53.9294 462.401 53.9294 462.401 56.3006C462.401 57.243 461.827 59.0062 458.408 59.0062C455.441 58.9992 452.543 58.0994 450.09 56.4222L447.7 63.0798C451.481 65.2613 455.774 66.3943 460.133 66.363C471.265 66.363 472.686 59.8878 472.686 57.7598C472.699 56.1368 472.142 54.5614 471.113 53.3105C470.082 52.0592 468.648 51.2129 467.06 50.9198C468.291 50.3635 469.329 49.4497 470.043 48.2957C470.753 47.142 471.104 45.8011 471.053 44.4446C471.053 37.9694 464.247 36.6622 460.042 36.6622C456.1 36.7355 452.222 37.6581 448.668 39.3678L451.239 45.387ZM510.075 65.1774H519.816V54.1118H528.74V65.1774H538.45V37.3918H528.709V47.1806H519.786V37.3918H510.045L510.075 65.1774Z" fill="black"/>
<path d="M171.215 126.464H69.575V24.3198H171.215V126.464ZM167.918 27.7246H72.963V123.15H167.918V27.7246Z" fill="black"/>
<path d="M120.455 87.0959L91.2642 116.432L79.6482 104.758L108.9 75.4527L102.85 69.3727V57.2127L98.6149 52.9567V63.4447L94.9849 67.0927L80.1019 52.379L76.4719 56.0271C76.4916 52.7587 77.1541 49.5266 78.4206 46.5164C79.6875 43.5062 81.5333 40.7772 83.8529 38.4862C86.0917 35.9652 89.2259 34.4285 92.5806 34.2065C95.9357 33.9849 99.2432 35.096 101.791 37.3007L116.553 52.2575L112.802 56.0271L120.455 63.8399L128.199 56.0575L124.448 52.2879L139.15 37.2703C141.695 35.058 145.004 33.9421 148.361 34.164C151.718 34.3859 154.854 35.9278 157.088 38.4558C159.408 40.7468 161.254 43.4758 162.52 46.486C163.787 49.4962 164.449 52.7283 164.469 55.9967L160.839 52.3486L145.956 67.1839L142.326 63.5359V52.9567L138.121 57.2127V69.3727L132.071 75.4527L161.263 104.789L149.647 116.432L120.455 87.0959Z" fill="black"/>
</svg>
