<svg width="30" height="30" viewBox="0 0 30 30" fill="none" xmlns="http://www.w3.org/2000/svg">
<path d="M2.8125 3.48535V26.5127C2.81265 26.5627 2.82756 26.6115 2.85533 26.653C2.88311 26.6945 2.92253 26.7269 2.96865 26.7461C3.01477 26.7653 3.06553 26.7705 3.11458 26.761C3.16362 26.7514 3.20876 26.7277 3.24434 26.6926L15.2344 14.9996L3.24434 3.30547C3.20876 3.27039 3.16362 3.2466 3.11458 3.23707C3.06553 3.22755 3.01477 3.23272 2.96865 3.25193C2.92253 3.27114 2.88311 3.30354 2.85533 3.34506C2.82756 3.38659 2.81265 3.43539 2.8125 3.48535Z" fill="#9BA2AC"/>
<path d="M20.2619 10.1955L5.22794 1.91267L5.21857 1.9074C4.95958 1.76678 4.71349 2.11717 4.9256 2.32107L16.7106 13.5898L20.2619 10.1955Z" fill="#9BA2AC"/>
<path d="M4.92628 27.6791C4.713 27.883 4.9591 28.2334 5.21925 28.0928L5.22863 28.0875L20.2614 19.8047L16.7101 16.4092L4.92628 27.6791Z" fill="#9BA2AC"/>
<path d="M26.3308 13.5348L22.1325 11.2227L18.1851 14.9996L22.1325 18.7748L26.3308 16.4645C27.4728 15.8334 27.4728 14.1658 26.3308 13.5348Z" fill="#9BA2AC"/>
</svg>
