<svg width="25" height="25" viewBox="0 0 25 25" fill="none" xmlns="http://www.w3.org/2000/svg">
<path d="M7.6875 15.25H8.77375L9.15875 14.8788C7.76467 13.2618 6.99848 11.1975 7 9.0625C7 7.29483 7.52417 5.56686 8.50624 4.0971C9.4883 2.62733 10.8841 1.48179 12.5173 0.805331C14.1504 0.128872 15.9474 -0.0481198 17.6811 0.296736C19.4148 0.641591 21.0073 1.49281 22.2573 2.74274C23.5072 3.99267 24.3584 5.58518 24.7033 7.31888C25.0481 9.05259 24.8711 10.8496 24.1947 12.4827C23.5182 14.1159 22.3727 15.5117 20.9029 16.4938C19.4331 17.4758 17.7052 18 15.9375 18C13.7237 18 11.6887 17.1888 10.1212 15.8413L9.75 16.2263V17.3125L2.875 24.1738L0.826246 22.125L7.6875 15.25ZM15.9375 15.25C19.3612 15.25 22.125 12.4863 22.125 9.0625C22.125 5.63875 19.3612 2.875 15.9375 2.875C12.5137 2.875 9.75 5.63875 9.75 9.0625C9.75 12.4863 12.5137 15.25 15.9375 15.25Z" fill="#383838"/>
</svg>
