<svg width="14" height="13" fill="none" xmlns="http://www.w3.org/2000/svg"><path d="M8.81 4.051l.059.118.13.02 3.966.576s0 0 0 0c.14.02.232.148.212.281v.003a.248.248 0 01-.073.143s0 0 0 0l-2.87 2.798-.094.092.022.13.678 3.95v.001a.25.25 0 01-.204.288h0c-.054.01-.11 0-.157-.025h-.001L6.929 10.56l-.116-.061-.116.061-3.549 1.866h0a.25.25 0 01-.362-.263h0l.678-3.952.022-.13-.094-.091-2.87-2.798h0a.25.25 0 01.137-.427h0l3.968-.577.13-.019.058-.118L6.588.457s0 0 0 0a.252.252 0 01.336-.114h0a.247.247 0 01.113.113h0l1.774 3.595z" fill="#fff" stroke="#000" stroke-width=".5"/></svg>