<svg width="14" height="13" viewBox="0 0 14 13" fill="none" xmlns="http://www.w3.org/2000/svg">
<path d="M8.81056 4.05142L8.86872 4.16932L8.99882 4.18823L12.9652 4.76467C12.9653 4.76469 12.9654 4.7647 12.9655 4.76471C13.1046 4.78552 13.1973 4.91301 13.1767 5.04645L13.1763 5.04922C13.1687 5.10304 13.1433 5.15292 13.1038 5.19172C13.1037 5.1918 13.1036 5.19188 13.1035 5.19196L10.2337 7.98995L10.1396 8.0817L10.1618 8.21124L10.8399 12.1628L10.84 12.163C10.8633 12.2982 10.7725 12.4272 10.636 12.4507L10.6357 12.4508C10.5815 12.4602 10.5255 12.4513 10.4788 12.4264L10.4777 12.4258L6.92924 10.5602L6.8129 10.499L6.69656 10.5602L3.14812 12.4258L3.14773 12.426C3.10655 12.4477 3.0601 12.4575 3.01364 12.4542C2.96719 12.4509 2.9226 12.4346 2.88492 12.4073C2.84723 12.3799 2.81798 12.3425 2.80046 12.2994C2.78294 12.2562 2.77786 12.209 2.7858 12.1631L2.78586 12.1628L3.46398 8.21124L3.48621 8.0817L3.3921 7.98995L0.521792 5.19151L0.521776 5.19149C0.474178 5.1451 0.446947 5.0817 0.446067 5.01524C0.445189 4.94893 0.470612 4.88497 0.516762 4.83736C0.555559 4.79791 0.605408 4.77256 0.659189 4.76488L0.659789 4.76479L4.62698 4.18823L4.75707 4.16932L4.81523 4.05142L6.58807 0.457317C6.58815 0.457149 6.58823 0.456982 6.58832 0.456814C6.65076 0.3326 6.80152 0.282604 6.9241 0.343123L6.92439 0.343265C6.97332 0.367339 7.01295 0.406966 7.03702 0.455891L7.03713 0.456107L8.81056 4.05142Z" fill="white" stroke="black" stroke-width="0.5"/>
</svg>
