<svg width="14" height="13" fill="none" xmlns="http://www.w3.org/2000/svg"><path d="M8.998 4.167l.058.118.13.018 3.966.577s0 0 0 0c.14.02.232.148.212.282v.002a.25.25 0 01-.073.143l-2.87 2.798-.094.092.022.13.678 3.951h0a.25.25 0 01-.204.288h0c-.055.01-.11 0-.157-.024l-.001-.001-3.549-1.866-.116-.06-.116.06-3.549 1.866h0a.249.249 0 01-.362-.263h0l.678-3.952.022-.13-.094-.09-2.87-2.8h0a.25.25 0 01.137-.426h0l3.968-.577.13-.018.058-.118L6.775.573V.572a.252.252 0 01.336-.114h0a.247.247 0 01.113.113h0l1.774 3.596z" fill="#FFE600" stroke="#000" stroke-width=".5"/></svg>