<svg width="14" height="13" viewBox="0 0 14 13" fill="none" xmlns="http://www.w3.org/2000/svg">
<path d="M8.99758 4.16665L9.05573 4.28455L9.18583 4.30346L13.1522 4.87991C13.1523 4.87992 13.1524 4.87993 13.1525 4.87995C13.2916 4.90076 13.3844 5.02824 13.3638 5.16169L13.3634 5.16445C13.3557 5.21827 13.3303 5.26815 13.2908 5.30696C13.2907 5.30704 13.2906 5.30712 13.2906 5.3072L10.4207 8.10518L10.3266 8.19693L10.3488 8.32647L11.0269 12.278L11.027 12.2782C11.0503 12.4134 10.9595 12.5424 10.8231 12.5659L10.8227 12.566C10.7685 12.5754 10.7125 12.5665 10.6658 12.5416L10.6647 12.541L7.11625 10.6754L6.99991 10.6142L6.88357 10.6754L3.33513 12.541L3.33474 12.5412C3.29356 12.563 3.24711 12.5727 3.20066 12.5694C3.1542 12.5661 3.10961 12.5499 3.07193 12.5225C3.03425 12.4951 3.00499 12.4577 2.98747 12.4146C2.96995 12.3714 2.96487 12.3243 2.97281 12.2784L2.97287 12.278L3.65099 8.32647L3.67322 8.19693L3.57912 8.10518L0.708803 5.30674L0.708788 5.30673C0.66119 5.26033 0.633959 5.19694 0.633079 5.13047C0.6322 5.06416 0.657623 5.00021 0.703773 4.9526C0.742571 4.91315 0.792419 4.88779 0.8462 4.88011L0.8468 4.88002L4.81399 4.30346L4.94408 4.28455L5.00224 4.16665L6.77508 0.572551C6.77516 0.572384 6.77525 0.572216 6.77533 0.572049C6.83777 0.447834 6.98853 0.397839 7.11112 0.458357L7.11141 0.4585C7.16033 0.482574 7.19996 0.5222 7.22403 0.571125L7.22414 0.571342L8.99758 4.16665Z" fill="#FFE600" stroke="black" stroke-width="0.5"/>
</svg>
