<svg width="20" height="20" viewBox="0 0 20 20" fill="none" xmlns="http://www.w3.org/2000/svg">
<path d="M16.7 7.25853V3.33353H12.7833L9.99995 0.575195L7.25828 3.33353H3.33328V7.25853L0.574951 10.0002L3.33328 12.7835V16.7002H7.25828L9.99995 19.4585L12.7833 16.7002H16.7V12.7835L19.4583 10.0002L16.7 7.25853ZM7.35828 5.8752C8.17495 5.8752 8.83329 6.53353 8.83329 7.35853C8.83329 7.74972 8.67788 8.1249 8.40127 8.40151C8.12465 8.67813 7.74948 8.83353 7.35828 8.83353C6.53328 8.83353 5.87495 8.1752 5.87495 7.35853C5.87495 6.53353 6.53328 5.8752 7.35828 5.8752ZM12.6833 14.1669C11.8666 14.1669 11.2083 13.5002 11.2083 12.6835C11.2083 12.2923 11.3637 11.9172 11.6403 11.6405C11.9169 11.3639 12.2921 11.2085 12.6833 11.2085C13.5 11.2085 14.1666 11.8669 14.1666 12.6835C14.1666 13.0769 14.0103 13.4542 13.7322 13.7324C13.454 14.0106 13.0767 14.1669 12.6833 14.1669ZM7.08328 14.1919L5.83328 12.9419L12.9416 5.83353L14.1916 7.08353L7.08328 14.1919Z" fill="#383838"/>
</svg>
